<svg width="17" height="18" viewBox="0 0 17 18" fill="none" xmlns="http://www.w3.org/2000/svg">
<path d="M16.9908 17.5349L14.7064 3.65626C14.6756 3.46742 14.5111 3.32801 14.3175 3.32674H11.4705V3.02292C11.4944 2.22973 11.1918 1.46059 10.632 0.890993C10.0722 0.321579 9.30259 0 8.4987 0C7.69482 0 6.9252 0.321556 6.36541 0.890993C5.80539 1.46059 5.50303 2.22973 5.52688 3.02292V3.32674H2.68246C2.48955 3.32782 2.32544 3.46579 2.29353 3.65372L0.00912893 17.5352C-0.0165429 17.6503 0.012613 17.7707 0.0879781 17.8622C0.161875 17.9502 0.271898 18.0005 0.387601 17.9998H16.6019C16.7213 18.0038 16.8357 17.9529 16.912 17.8622C16.9874 17.7707 17.0165 17.6503 16.9909 17.5352L16.9908 17.5349ZM6.31566 3.02265C6.29512 2.43803 6.5159 1.87024 6.92755 1.44947C7.33921 1.0287 7.90639 0.790973 8.49885 0.790973C9.09131 0.790973 9.65847 1.0287 10.0702 1.44947C10.4816 1.87025 10.7026 2.43803 10.682 3.02265V3.32646H6.31566V3.02265ZM0.860963 17.2077L3.01904 4.10493H5.52698V5.56371V5.56353C5.52698 5.77863 5.70357 5.95298 5.92122 5.95298C6.13906 5.95298 6.31565 5.77863 6.31565 5.56353V4.10493H10.682V5.56372V5.56354C10.682 5.77863 10.8586 5.95299 11.0763 5.95299C11.2941 5.95299 11.4707 5.77863 11.4707 5.56354V4.10494H13.9812L16.1394 17.2049L0.860963 17.2077Z" fill="white"/>
</svg>
