<svg width="12" height="13" viewBox="0 0 12 13" fill="none" xmlns="http://www.w3.org/2000/svg">
<path d="M0.828717 2.89988H1.07723L1.79533 11.7929C1.83675 12.3315 2.29245 12.7458 2.83101 12.7458H8.49273C9.03128 12.7458 9.48698 12.3315 9.52841 11.7929L10.2465 2.89988H10.495C10.9507 2.89988 11.3236 2.52701 11.3236 2.07129C11.3236 1.61559 10.9507 1.2427 10.495 1.2427L7.52607 1.24279V0.88378C7.52607 0.400414 7.12565 0 6.64229 0H4.68132C4.19796 0 3.79754 0.400414 3.79754 0.88378V1.24279H0.828593C0.372894 1.24279 0 1.61566 0 2.07138C0 2.52711 0.372869 2.89988 0.828593 2.89988L0.828717 2.89988ZM8.97607 11.7515C8.96229 12 8.74133 12.1934 8.4927 12.1934H2.83098C2.58247 12.1934 2.3615 12.0001 2.34762 11.7515L1.62952 2.89988H9.68021L8.97607 11.7515ZM4.35003 0.897567C4.35003 0.71802 4.50193 0.566125 4.68147 0.566125H6.64236C6.82191 0.566125 6.9738 0.718029 6.9738 0.897567V1.25658H4.35008L4.35003 0.897567ZM0.828717 1.79511H10.4951C10.647 1.79511 10.7712 1.91937 10.7712 2.07126C10.7712 2.22316 10.647 2.34742 10.4951 2.34742H9.98415L1.33968 2.34752H0.828766C0.676861 2.34752 0.552609 2.22326 0.552609 2.07136C0.552609 1.91946 0.676869 1.7951 0.828766 1.7951L0.828717 1.79511Z" fill="#146060"/>
<path d="M3.90799 11.3784C4.0599 11.3784 4.18415 11.2541 4.18415 11.1022V3.86624C4.18415 3.71434 4.05989 3.59009 3.90799 3.59009C3.7561 3.59009 3.63184 3.71435 3.63184 3.86624V11.1022C3.63184 11.2541 3.7561 11.3784 3.90799 11.3784Z" fill="#146060"/>
<path d="M5.6619 11.4477C5.8138 11.4477 5.93806 11.3234 5.93806 11.1715V3.93558C5.93806 3.78368 5.8138 3.65942 5.6619 3.65942C5.51 3.65942 5.38574 3.78368 5.38574 3.93558V11.1715C5.38574 11.3234 5.51 11.4477 5.6619 11.4477Z" fill="#146060"/>
<path d="M7.41581 11.5168C7.56771 11.5168 7.69196 11.3925 7.69196 11.2406V4.00467C7.69196 3.85277 7.5677 3.72852 7.41581 3.72852C7.26391 3.72852 7.13965 3.85278 7.13965 4.00467V11.2406C7.13965 11.3925 7.26391 11.5168 7.41581 11.5168Z" fill="#146060"/>
</svg>
