<svg width="8" height="3" viewBox="0 0 8 3" fill="none" xmlns="http://www.w3.org/2000/svg">
<path d="M7.28454 0.419181C7.32878 0.382555 7.35658 0.334778 7.36343 0.283659C7.38359 0.184287 7.32128 0.0860326 7.21009 0.0416038C7.09911 -0.00267012 6.96541 0.0173947 6.88104 0.0909686L3.99595 2.43814L1.11087 0.0909689C1.05743 0.0474923 0.984807 0.0229686 0.909054 0.0229686C0.833497 0.0229686 0.760877 0.047494 0.707439 0.090969C0.653998 0.134444 0.623854 0.193526 0.623854 0.255154C0.623854 0.316624 0.654 0.375706 0.707439 0.419181L3.79437 2.93057C3.84722 2.975 3.92004 3 3.99599 3C4.07194 3 4.14475 2.975 4.19761 2.93057L7.28454 0.419181Z" fill="#146060"/>
</svg>
