<svg width="14" height="12" viewBox="0 0 14 12" fill="none" xmlns="http://www.w3.org/2000/svg">
<path d="M12.5111 1.47902L12.5309 1.49852C13.1781 2.14657 13.5 2.98991 13.5 3.8322C13.5 4.6829 13.1717 5.53453 12.5114 6.18516L7.19906 11.4194L7.19904 11.4194C7.08998 11.5269 6.91009 11.5269 6.80098 11.4193L6.44999 11.7754L6.80097 11.4193L1.85188 6.54142L1.85182 6.54137L1.49028 6.18513L1.48987 6.18474C0.828233 5.53429 0.5 4.68278 0.5 3.83218C0.5 2.98154 0.828224 2.13012 1.48989 1.47961L1.49048 1.47902C2.81377 0.173661 4.96395 0.173657 6.28727 1.47902L6.28747 1.47923L6.64913 1.83556L7.0001 2.18138L7.35103 1.83551L7.71255 1.4792C7.71256 1.47919 7.71257 1.47918 7.71258 1.47917C9.0376 0.1735 11.1879 0.173767 12.5111 1.47902Z" stroke="#146060"/>
</svg>
