<svg width="22" height="22" viewBox="0 0 22 22" fill="none" xmlns="http://www.w3.org/2000/svg">
<path d="M11.0007 19.2276L10.0611 18.3797C8.44162 16.8977 7.10482 15.6182 6.05065 14.5411C4.99648 13.4641 4.15621 12.5016 3.52982 11.6536C2.90343 10.8057 2.46419 10.038 2.21211 9.35052C1.96003 8.66302 1.83398 7.96788 1.83398 7.2651C1.83398 5.8901 2.29614 4.74045 3.22044 3.81615C4.14475 2.89184 5.28676 2.42969 6.64648 2.42969C7.51732 2.42969 8.32322 2.63594 9.06419 3.04844C9.80516 3.46094 10.4507 4.05677 11.0007 4.83594C11.6423 4.01094 12.3222 3.40365 13.0402 3.01406C13.7583 2.62448 14.5298 2.42969 15.3548 2.42969C16.7145 2.42969 17.8566 2.89184 18.7809 3.81615C19.7052 4.74045 20.1673 5.8901 20.1673 7.2651C20.1673 7.96788 20.0413 8.66302 19.7892 9.35052C19.5371 10.038 19.0979 10.8057 18.4715 11.6536C17.8451 12.5016 17.0048 13.4641 15.9507 14.5411C14.8965 15.6182 13.5597 16.8977 11.9402 18.3797L11.0007 19.2276ZM11.0007 17.4172C12.5437 15.9964 13.8156 14.778 14.8163 13.762C15.817 12.746 16.6114 11.8561 17.1996 11.0922C17.7878 10.3283 18.2003 9.64844 18.4371 9.0526C18.6739 8.45677 18.7923 7.86094 18.7923 7.2651C18.7923 6.25677 18.4715 5.42795 17.8298 4.77865C17.1882 4.12934 16.3632 3.80469 15.3548 3.80469C14.5757 3.80469 13.85 4.04531 13.1777 4.52656C12.5055 5.00781 11.9632 5.68385 11.5507 6.55469H10.4277C10.0305 5.69913 9.49579 5.02691 8.82357 4.53802C8.15135 4.04913 7.42565 3.80469 6.64648 3.80469C5.63815 3.80469 4.81315 4.12934 4.17148 4.77865C3.52982 5.42795 3.20898 6.25677 3.20898 7.2651C3.20898 7.86094 3.32739 8.46059 3.56419 9.06406C3.801 9.66753 4.2135 10.355 4.80169 11.1266C5.38989 11.8981 6.18815 12.788 7.19648 13.7964C8.20482 14.8047 9.47287 16.0116 11.0007 17.4172Z" fill="#0F0F0F"/>
</svg>
