<svg width="34" height="13" viewBox="0 0 34 13" fill="none" xmlns="http://www.w3.org/2000/svg">
<path d="M1.04004 1.56299H7.00928V1.57764C6.65771 2.19287 6.45752 2.52246 6.40869 2.56641H4.81934C5.03906 2.85938 5.18799 3.21338 5.26611 3.62842H6.96533C6.98486 3.6333 6.99463 3.64307 6.99463 3.65771C6.61377 4.30225 6.41846 4.62695 6.40869 4.63184H5.31006C5.28564 4.95898 5.14648 5.35938 4.89258 5.83301C4.5459 6.30664 4.21875 6.61426 3.91113 6.75586C3.33496 7.06836 2.7832 7.22461 2.25586 7.22461V7.23926C2.25586 7.2832 2.38525 7.47607 2.64404 7.81787L5.58838 11.8535V12.0439C5.58838 12.0635 5.57861 12.0732 5.55908 12.0732H4.2627C1.92871 8.99219 0.761719 7.44434 0.761719 7.42969V6.49219L0.776367 6.45557C0.981445 6.48975 1.22314 6.50684 1.50146 6.50684C2.80518 6.50684 3.61816 6.02588 3.94043 5.06396C3.98926 4.92236 4.01367 4.77832 4.01367 4.63184H0.46875C0.449219 4.63184 0.439453 4.61963 0.439453 4.59521C0.830078 3.95068 1.03027 3.62842 1.04004 3.62842H3.85986V3.61377C3.69385 3.24268 3.38135 2.95459 2.92236 2.74951C2.59033 2.62744 2.29248 2.56641 2.02881 2.56641H0.454102V2.52979C0.834961 1.88525 1.03027 1.56299 1.04004 1.56299ZM13.4188 12C13.2801 12 13.1575 11.968 13.0508 11.904C12.9441 11.8293 12.8908 11.7227 12.8908 11.584V0.704C12.8908 0.565333 12.9441 0.463999 13.0508 0.4C13.1575 0.336 13.2801 0.304 13.4188 0.304C13.5468 0.304 13.6641 0.336 13.7708 0.4C13.8881 0.463999 13.9468 0.565333 13.9468 0.704V11.584C13.9468 11.7227 13.8881 11.8293 13.7708 11.904C13.6641 11.968 13.5468 12 13.4188 12ZM17.7032 12C17.5645 12 17.4418 11.968 17.3352 11.904C17.2285 11.8293 17.1752 11.7227 17.1752 11.584V0.704C17.1752 0.554666 17.2285 0.453333 17.3352 0.4C17.4418 0.336 17.5645 0.304 17.7032 0.304C17.8312 0.304 17.9432 0.341333 18.0392 0.415999C18.1352 0.479999 18.2258 0.570666 18.3112 0.688C18.3965 0.794666 18.4712 0.917333 18.5352 1.056L22.8552 9.552V0.704C22.8552 0.565333 22.9085 0.463999 23.0152 0.4C23.1218 0.336 23.2445 0.304 23.3832 0.304C23.5112 0.304 23.6285 0.336 23.7352 0.4C23.8525 0.463999 23.9112 0.565333 23.9112 0.704V11.584C23.9112 11.7227 23.8525 11.8293 23.7352 11.904C23.6285 11.968 23.5112 12 23.3832 12C23.2338 12 23.0952 11.9413 22.9672 11.824C22.8498 11.696 22.7538 11.552 22.6792 11.392L18.2312 2.736V11.584C18.2312 11.7227 18.1725 11.8293 18.0552 11.904C17.9485 11.968 17.8312 12 17.7032 12ZM33.2591 12.032C33.1417 12.032 33.0351 11.9733 32.9391 11.856C32.8431 11.728 32.7631 11.6 32.6991 11.472L30.2351 6.672H28.2031V11.584C28.2031 11.7227 28.1444 11.8293 28.0271 11.904C27.9204 11.968 27.8031 12 27.6751 12C27.5364 12 27.4137 11.968 27.3071 11.904C27.2004 11.8293 27.1471 11.7227 27.1471 11.584V0.704C27.1471 0.597333 27.1844 0.506666 27.2591 0.431999C27.3337 0.357333 27.4297 0.314666 27.5471 0.304H30.3791C31.0084 0.304 31.5844 0.4 32.1071 0.591999C32.6297 0.783999 33.0457 1.10933 33.3551 1.568C33.6751 2.02667 33.8351 2.656 33.8351 3.456C33.8351 4.11733 33.7231 4.66133 33.4991 5.088C33.2857 5.51467 32.9871 5.84533 32.6031 6.08C32.2297 6.304 31.8084 6.45867 31.3391 6.544L33.8031 11.28C33.8351 11.312 33.8511 11.3493 33.8511 11.392C33.8617 11.424 33.8671 11.456 33.8671 11.488C33.8671 11.5733 33.8351 11.6587 33.7711 11.744C33.7177 11.8293 33.6431 11.8987 33.5471 11.952C33.4511 12.0053 33.3551 12.032 33.2591 12.032ZM28.2031 5.76H30.3791C31.0937 5.76 31.6697 5.58933 32.1071 5.248C32.5551 4.896 32.7791 4.32 32.7791 3.52C32.7791 2.70933 32.5551 2.13333 32.1071 1.792C31.6697 1.45067 31.0937 1.28 30.3791 1.28H28.2031V5.76Z" fill="#0F0F0F"/>
</svg>
