<svg width="23" height="23" viewBox="0 0 23 23" fill="none" xmlns="http://www.w3.org/2000/svg">
<path d="M13.769 14.3404C14.4944 13.615 14.8571 12.7396 14.8571 11.7143C14.8571 10.689 14.4944 9.81362 13.769 9.08817C13.0435 8.36272 12.1682 8 11.1429 8C10.1176 8 9.24219 8.36272 8.51674 9.08817C7.7913 9.81362 7.42857 10.689 7.42857 11.7143C7.42857 12.7396 7.7913 13.615 8.51674 14.3404C9.24219 15.0658 10.1176 15.4286 11.1429 15.4286C12.1682 15.4286 13.0435 15.0658 13.769 14.3404ZM15.1908 7.66629C16.3032 8.77865 16.8594 10.128 16.8594 11.7143C16.8594 13.3006 16.3032 14.6499 15.1908 15.7623C14.0785 16.8746 12.7292 17.4308 11.1429 17.4308C9.55655 17.4308 8.20722 16.8746 7.09487 15.7623C5.98252 14.6499 5.42634 13.3006 5.42634 11.7143C5.42634 10.128 5.98252 8.77865 7.09487 7.66629C8.20722 6.55394 9.55655 5.99777 11.1429 5.99777C12.7292 5.99777 14.0785 6.55394 15.1908 7.66629ZM18.0346 4.82254C18.2958 5.0837 18.4263 5.39807 18.4263 5.76562C18.4263 6.13318 18.2958 6.44754 18.0346 6.7087C17.7734 6.96987 17.4591 7.10045 17.0915 7.10045C16.724 7.10045 16.4096 6.96987 16.1484 6.7087C15.8873 6.44754 15.7567 6.13318 15.7567 5.76562C15.7567 5.39807 15.8873 5.0837 16.1484 4.82254C16.4096 4.56138 16.724 4.4308 17.0915 4.4308C17.4591 4.4308 17.7734 4.56138 18.0346 4.82254ZM12.2455 2.57366C11.5781 2.57366 11.2106 2.57366 11.1429 2.57366C11.0751 2.57366 10.7028 2.57366 10.0257 2.57366C9.35826 2.56399 8.85045 2.56399 8.50223 2.57366C8.15402 2.57366 7.6849 2.58817 7.09487 2.61719C6.51451 2.63653 6.01637 2.68489 5.60045 2.76228C5.1942 2.82998 4.85082 2.91704 4.57031 3.02344C4.08668 3.21689 3.66109 3.49739 3.29353 3.86495C2.92597 4.23251 2.64546 4.65811 2.45201 5.14174C2.34561 5.42225 2.25372 5.77046 2.17634 6.18638C2.10863 6.59263 2.06027 7.09077 2.03125 7.6808C2.0119 8.26116 1.9974 8.72545 1.98772 9.07366C1.98772 9.42187 1.98772 9.93452 1.98772 10.6116C1.9974 11.279 2.00223 11.6466 2.00223 11.7143C2.00223 11.782 1.9974 12.1544 1.98772 12.8315C1.98772 13.4989 1.98772 14.0067 1.98772 14.3549C1.9974 14.7031 2.0119 15.1722 2.03125 15.7623C2.06027 16.3426 2.10863 16.8408 2.17634 17.2567C2.25372 17.6629 2.34561 18.0063 2.45201 18.2868C2.64546 18.7705 2.92597 19.1961 3.29353 19.5636C3.66109 19.9312 4.08668 20.2117 4.57031 20.4051C4.85082 20.5115 5.1942 20.6034 5.60045 20.6808C6.01637 20.7485 6.51451 20.7969 7.09487 20.8259C7.6849 20.8452 8.15402 20.8597 8.50223 20.8694C8.85045 20.8694 9.35826 20.8694 10.0257 20.8694C10.7028 20.8597 11.0751 20.8549 11.1429 20.8549C11.2106 20.8549 11.5781 20.8597 12.2455 20.8694C12.9226 20.8694 13.4353 20.8694 13.7835 20.8694C14.1317 20.8597 14.596 20.8452 15.1763 20.8259C15.7664 20.7969 16.2645 20.7485 16.6708 20.6808C17.0867 20.6034 17.4349 20.5115 17.7154 20.4051C18.199 20.2117 18.6246 19.9312 18.9922 19.5636C19.3597 19.1961 19.6403 18.7705 19.8337 18.2868C19.9401 18.0063 20.0272 17.6629 20.0949 17.2567C20.1722 16.8408 20.2206 16.3426 20.24 15.7623C20.269 15.1722 20.2835 14.7031 20.2835 14.3549C20.2932 14.0067 20.2932 13.4989 20.2835 12.8315C20.2835 12.1544 20.2835 11.782 20.2835 11.7143C20.2835 11.6466 20.2835 11.279 20.2835 10.6116C20.2932 9.93452 20.2932 9.42187 20.2835 9.07366C20.2835 8.72545 20.269 8.26116 20.24 7.6808C20.2206 7.09077 20.1722 6.59263 20.0949 6.18638C20.0272 5.77046 19.9401 5.42225 19.8337 5.14174C19.6403 4.65811 19.3597 4.23251 18.9922 3.86495C18.6246 3.49739 18.199 3.21689 17.7154 3.02344C17.4349 2.91704 17.0867 2.82998 16.6708 2.76228C16.2645 2.68489 15.7664 2.63653 15.1763 2.61719C14.596 2.58817 14.1317 2.57366 13.7835 2.57366C13.4353 2.56399 12.9226 2.56399 12.2455 2.57366ZM22.2132 7.11495C22.2615 7.96615 22.2857 9.49926 22.2857 11.7143C22.2857 13.9293 22.2615 15.4624 22.2132 16.3136C22.1164 18.3255 21.5167 19.8828 20.4141 20.9855C19.3114 22.0882 17.7541 22.6879 15.7422 22.7846C14.891 22.833 13.3579 22.8571 11.1429 22.8571C8.92783 22.8571 7.39472 22.833 6.54353 22.7846C4.53162 22.6879 2.97433 22.0882 1.87165 20.9855C0.768973 19.8828 0.169271 18.3255 0.0725446 16.3136C0.0241815 15.4624 0 13.9293 0 11.7143C0 9.49926 0.0241815 7.96615 0.0725446 7.11495C0.169271 5.10305 0.768973 3.54576 1.87165 2.44308C2.97433 1.3404 4.53162 0.740698 6.54353 0.643973C7.39472 0.595609 8.92783 0.571427 11.1429 0.571427C13.3579 0.571427 14.891 0.595609 15.7422 0.643973C17.7541 0.740698 19.3114 1.3404 20.4141 2.44308C21.5167 3.54576 22.1164 5.10305 22.2132 7.11495Z" fill="white"/>
</svg>
