<svg width="34" height="34" viewBox="0 0 34 34" fill="none" xmlns="http://www.w3.org/2000/svg">
<path d="M12.959 24.083L24.084 16.9997L12.959 9.91634V24.083ZM17.0007 33.6663C14.7229 33.6663 12.5701 33.2288 10.5423 32.3538C8.51454 31.4788 6.74371 30.2844 5.22982 28.7705C3.71593 27.2566 2.52148 25.4858 1.64648 23.458C0.771484 21.4302 0.333984 19.2775 0.333984 16.9997C0.333984 14.6941 0.771484 12.5275 1.64648 10.4997C2.52148 8.4719 3.71593 6.70801 5.22982 5.20801C6.74371 3.70801 8.51454 2.52051 10.5423 1.64551C12.5701 0.770508 14.7229 0.333008 17.0007 0.333008C19.3062 0.333008 21.4729 0.770508 23.5007 1.64551C25.5284 2.52051 27.2923 3.70801 28.7923 5.20801C30.2923 6.70801 31.4798 8.4719 32.3548 10.4997C33.2298 12.5275 33.6673 14.6941 33.6673 16.9997C33.6673 19.2775 33.2298 21.4302 32.3548 23.458C31.4798 25.4858 30.2923 27.2566 28.7923 28.7705C27.2923 30.2844 25.5284 31.4788 23.5007 32.3538C21.4729 33.2288 19.3062 33.6663 17.0007 33.6663ZM17.0007 31.1663C20.9451 31.1663 24.2923 29.7844 27.0423 27.0205C29.7923 24.2566 31.1673 20.9163 31.1673 16.9997C31.1673 13.0552 29.7923 9.70801 27.0423 6.95801C24.2923 4.20801 20.9451 2.83301 17.0007 2.83301C13.084 2.83301 9.74371 4.20801 6.97982 6.95801C4.21593 9.70801 2.83398 13.0552 2.83398 16.9997C2.83398 20.9163 4.21593 24.2566 6.97982 27.0205C9.74371 29.7844 13.084 31.1663 17.0007 31.1663Z" fill="white"/>
</svg>
