<svg width="36" height="36" viewBox="0 0 36 36" fill="none" xmlns="http://www.w3.org/2000/svg">
<path d="M20.9625 32.3625C20.5125 32.8125 19.9687 33.0375 19.3312 33.0375C18.6937 33.0375 18.15 32.8125 17.7 32.3625L3.6375 18.3C3.3875 18.05 3.21875 17.7875 3.13125 17.5125C3.04375 17.2375 3 16.95 3 16.65V5.25C3 4.6 3.2125 4.0625 3.6375 3.6375C4.0625 3.2125 4.6 3 5.25 3H16.65C16.95 3 17.25 3.04375 17.55 3.13125C17.85 3.21875 18.125 3.3875 18.375 3.6375L32.3625 17.625C32.8375 18.1 33.075 18.6562 33.075 19.2938C33.075 19.9312 32.8375 20.4875 32.3625 20.9625L20.9625 32.3625ZM19.425 30.825L30.825 19.425L16.65 5.25H5.25V16.65L19.425 30.825ZM9.1875 11.1C9.7125 11.1 10.1687 10.9062 10.5562 10.5187C10.9437 10.1312 11.1375 9.675 11.1375 9.15C11.1375 8.625 10.9437 8.16875 10.5562 7.78125C10.1687 7.39375 9.7125 7.2 9.1875 7.2C8.6625 7.2 8.20625 7.39375 7.81875 7.78125C7.43125 8.16875 7.2375 8.625 7.2375 9.15C7.2375 9.675 7.43125 10.1312 7.81875 10.5187C8.20625 10.9062 8.6625 11.1 9.1875 11.1Z" fill="#0F0F0F"/>
</svg>
