<svg width="20" height="13" viewBox="0 0 20 13" fill="none" xmlns="http://www.w3.org/2000/svg">
<path fill-rule="evenodd" clip-rule="evenodd" d="M15.9178 0.00174394C15.8264 0.00236004 15.7391 0.0394801 15.6749 0.104634L14.5573 1.24071C13.1207 0.605204 11.5698 0.275565 10.0011 0.274974C5.87259 0.275282 2.06453 2.54022 0.0432187 6.19389C-0.014201 6.29771 -0.0143549 6.42385 0.0430648 6.52782C1.14239 8.518 2.79373 10.132 4.78679 11.172L3.83371 12.1406C3.70024 12.2763 3.70193 12.4949 3.83771 12.6284C3.97349 12.7619 4.19178 12.7599 4.32509 12.6241L5.61268 11.3153C5.61622 11.3116 5.61976 11.3079 5.62314 11.3043L8.0821 8.80487L16.1667 0.586994C16.3003 0.451144 16.2985 0.232889 16.1629 0.0991994C16.0978 0.034971 16.0097 -0.000607271 15.9183 7.84519e-06L15.9178 0.00174394ZM10.0009 0.964875C11.3863 0.965491 12.7568 1.2395 14.0376 1.7689L12.1475 3.69008C11.5443 3.19136 10.7863 2.9144 10.0001 2.9144C8.12355 2.9144 6.60041 4.46619 6.60041 6.36457C6.60041 7.16351 6.87335 7.93438 7.36799 8.54835L5.29422 10.6564C3.39547 9.71278 1.81586 8.21674 0.746754 6.36039C2.67211 3.02267 6.18877 0.965269 10.0009 0.964875ZM16.7513 2.64438C16.6605 2.65516 16.5778 2.70152 16.5213 2.7733C16.4034 2.92286 16.429 3.13973 16.5784 3.2577C17.6577 4.1096 18.5645 5.16484 19.2551 6.36301C17.3312 9.70321 13.8142 11.763 10.0009 11.7646C9.35172 11.7643 8.7041 11.7041 8.06555 11.5849C7.97565 11.5681 7.88266 11.5876 7.80723 11.6394C7.7318 11.6911 7.68007 11.7708 7.66329 11.8607C7.62835 12.0479 7.75166 12.2281 7.93885 12.263C8.61898 12.3901 9.30912 12.4543 10.0006 12.4546C14.1295 12.4529 17.9364 10.1864 19.9569 6.53162C20.0144 6.42781 20.0144 6.30166 19.9569 6.19769C19.2114 4.8492 18.208 3.66534 17.0052 2.71609C16.9335 2.65941 16.8421 2.63375 16.7513 2.64438ZM9.99968 3.60428C10.6044 3.60428 11.1881 3.8099 11.6613 4.18387L7.8554 8.05251C7.49087 7.57209 7.28952 6.97925 7.28952 6.36453C7.28952 4.83305 8.50168 3.60428 9.99968 3.60428Z" fill="#646363"/>
</svg>
