<svg width="22" height="22" viewBox="0 0 22 22" fill="none" xmlns="http://www.w3.org/2000/svg">
<path d="M5.04102 20.1673C4.67435 20.1673 4.35352 20.0298 4.07852 19.7548C3.80352 19.4798 3.66602 19.159 3.66602 18.7923V6.87565C3.66602 6.50898 3.80352 6.18815 4.07852 5.91315C4.35352 5.63815 4.67435 5.50065 5.04102 5.50065H7.56185V5.27148C7.56185 4.30898 7.89414 3.49544 8.55872 2.83086C9.22331 2.16628 10.0368 1.83398 10.9993 1.83398C11.9618 1.83398 12.7754 2.16628 13.44 2.83086C14.1046 3.49544 14.4368 4.30898 14.4368 5.27148V5.50065H16.9577C17.3243 5.50065 17.6452 5.63815 17.9202 5.91315C18.1952 6.18815 18.3327 6.50898 18.3327 6.87565V18.7923C18.3327 19.159 18.1952 19.4798 17.9202 19.7548C17.6452 20.0298 17.3243 20.1673 16.9577 20.1673H5.04102ZM5.04102 18.7923H16.9577V6.87565H14.4368V8.93815C14.4368 9.13676 14.3719 9.301 14.2421 9.43086C14.1122 9.56072 13.948 9.62565 13.7493 9.62565C13.5507 9.62565 13.3865 9.56072 13.2566 9.43086C13.1268 9.301 13.0618 9.13676 13.0618 8.93815V6.87565H8.93685V8.93815C8.93685 9.13676 8.87192 9.301 8.74206 9.43086C8.6122 9.56072 8.44796 9.62565 8.24935 9.62565C8.05074 9.62565 7.8865 9.56072 7.75664 9.43086C7.62678 9.301 7.56185 9.13676 7.56185 8.93815V6.87565H5.04102V18.7923ZM8.93685 5.50065H13.0618V5.27148C13.0618 4.69093 12.8632 4.20204 12.466 3.80482C12.0688 3.4076 11.5799 3.20898 10.9993 3.20898C10.4188 3.20898 9.9299 3.4076 9.53268 3.80482C9.13546 4.20204 8.93685 4.69093 8.93685 5.27148V5.50065Z" fill="#0F0F0F"/>
</svg>
