<svg width="20" height="13" viewBox="0 0 20 13" fill="none" xmlns="http://www.w3.org/2000/svg">
<path fill-rule="evenodd" clip-rule="evenodd" d="M10.001 12.2578C5.8721 12.2575 2.06479 9.97755 0.0431026 6.29985H0.042949C-0.0143163 6.19571 -0.0143163 6.06913 0.042949 5.96484C2.06266 2.28445 5.87037 0.00133273 10.0008 -0.000251838H10.0011C14.13 0.00145034 17.9369 2.28299 19.9571 5.96127C20.0143 6.06541 20.0143 6.19199 19.9571 6.29613C17.9367 9.9745 14.13 12.2561 10.0011 12.2577H10.001V12.2578ZM10.0008 11.5647C13.8133 11.5632 17.3301 9.49057 19.2541 6.12848C17.33 2.76671 13.8137 0.694224 10.0008 0.692243C6.18694 0.693945 2.66917 2.76794 0.745612 6.13165C2.67094 9.49267 6.188 11.5639 10.0004 11.5643L10.0008 11.5647ZM10.0002 9.6009C8.12336 9.6009 6.60039 8.03891 6.60039 6.12864C6.60039 4.21837 8.12336 2.65639 10.0002 2.65639C11.8771 2.65639 13.3999 4.21837 13.3999 6.12864C13.3999 8.03891 11.8771 9.6009 10.0002 9.6009ZM10.0002 8.90781C11.4978 8.90781 12.7105 7.67094 12.7105 6.12864C12.7105 4.58635 11.4979 3.34932 10.0002 3.34932C8.50267 3.34932 7.28994 4.58619 7.28994 6.12864C7.28994 7.67098 8.50267 8.90781 10.0002 8.90781Z" fill="#646363"/>
</svg>
