<svg width="22" height="22" viewBox="0 0 22 22" fill="none" xmlns="http://www.w3.org/2000/svg">
<path d="M5.08815 16.1569C6.05065 15.4847 7.00551 14.9691 7.95273 14.61C8.89996 14.251 9.91593 14.0715 11.0007 14.0715C12.0854 14.0715 13.1052 14.251 14.06 14.61C15.0149 14.9691 15.9736 15.4847 16.9361 16.1569C17.6083 15.3319 18.0857 14.4993 18.3684 13.659C18.651 12.8187 18.7923 11.9326 18.7923 11.0007C18.7923 8.78537 18.0475 6.93294 16.5579 5.44336C15.0684 3.95378 13.2159 3.20898 11.0007 3.20898C8.78537 3.20898 6.93294 3.95378 5.44336 5.44336C3.95378 6.93294 3.20898 8.78537 3.20898 11.0007C3.20898 11.9326 3.35412 12.8187 3.6444 13.659C3.93468 14.4993 4.41593 15.3319 5.08815 16.1569ZM11.0007 11.6882C10.1145 11.6882 9.36975 11.3864 8.76628 10.7829C8.1628 10.1795 7.86107 9.43468 7.86107 8.54857C7.86107 7.66246 8.1628 6.91766 8.76628 6.31419C9.36975 5.71072 10.1145 5.40898 11.0007 5.40898C11.8868 5.40898 12.6316 5.71072 13.235 6.31419C13.8385 6.91766 14.1402 7.66246 14.1402 8.54857C14.1402 9.43468 13.8385 10.1795 13.235 10.7829C12.6316 11.3864 11.8868 11.6882 11.0007 11.6882ZM11.0007 20.1673C9.74787 20.1673 8.56385 19.9267 7.44857 19.4454C6.33329 18.9642 5.35933 18.3072 4.52669 17.4746C3.69405 16.642 3.03711 15.668 2.55586 14.5527C2.07461 13.4375 1.83398 12.2534 1.83398 11.0007C1.83398 9.73259 2.07461 8.54475 2.55586 7.43711C3.03711 6.32947 3.69405 5.35933 4.52669 4.52669C5.35933 3.69405 6.33329 3.03711 7.44857 2.55586C8.56385 2.07461 9.74787 1.83398 11.0007 1.83398C12.2687 1.83398 13.4566 2.07461 14.5642 2.55586C15.6718 3.03711 16.642 3.69405 17.4746 4.52669C18.3072 5.35933 18.9642 6.32947 19.4454 7.43711C19.9267 8.54475 20.1673 9.73259 20.1673 11.0007C20.1673 12.2534 19.9267 13.4375 19.4454 14.5527C18.9642 15.668 18.3072 16.642 17.4746 17.4746C16.642 18.3072 15.6718 18.9642 14.5642 19.4454C13.4566 19.9267 12.2687 20.1673 11.0007 20.1673ZM11.0007 18.7923C11.8409 18.7923 12.6621 18.6701 13.4642 18.4257C14.2663 18.1812 15.0569 17.7534 15.8361 17.1423C15.0569 16.5923 14.2625 16.1722 13.4527 15.8819C12.643 15.5916 11.8257 15.4465 11.0007 15.4465C10.1757 15.4465 9.35829 15.5916 8.54857 15.8819C7.73884 16.1722 6.9444 16.5923 6.16523 17.1423C6.9444 17.7534 7.73503 18.1812 8.53711 18.4257C9.33919 18.6701 10.1604 18.7923 11.0007 18.7923ZM11.0007 10.3132C11.5201 10.3132 11.9441 10.1489 12.2725 9.82044C12.601 9.49197 12.7652 9.06801 12.7652 8.54857C12.7652 8.02912 12.601 7.60516 12.2725 7.27669C11.9441 6.94822 11.5201 6.78398 11.0007 6.78398C10.4812 6.78398 10.0572 6.94822 9.72878 7.27669C9.4003 7.60516 9.23607 8.02912 9.23607 8.54857C9.23607 9.06801 9.4003 9.49197 9.72878 9.82044C10.0572 10.1489 10.4812 10.3132 11.0007 10.3132Z" fill="#0F0F0F"/>
</svg>
