<svg width="21" height="30" viewBox="0 0 21 30" fill="none" xmlns="http://www.w3.org/2000/svg">
<path d="M10.5067 2.84C8.96005 2.84 7.73339 3.25333 6.82672 4.08C5.94672 4.90667 5.28005 5.93333 4.82672 7.16C4.37339 8.38667 4.08005 9.69333 3.94672 11.08C3.84005 12.4667 3.78672 13.72 3.78672 14.84C3.78672 15.96 3.84005 17.2133 3.94672 18.6C4.08005 19.9867 4.37339 21.2933 4.82672 22.52C5.28005 23.7467 5.94672 24.7733 6.82672 25.6C7.73339 26.4267 8.96005 26.84 10.5067 26.84C12.0534 26.84 13.2667 26.4267 14.1467 25.6C15.0534 24.7733 15.7334 23.7467 16.1867 22.52C16.6401 21.2933 16.9201 19.9867 17.0267 18.6C17.1601 17.2133 17.2267 15.96 17.2267 14.84C17.2267 13.72 17.1601 12.4667 17.0267 11.08C16.9201 9.69333 16.6401 8.38667 16.1867 7.16C15.7334 5.93333 15.0534 4.90667 14.1467 4.08C13.2667 3.25333 12.0534 2.84 10.5067 2.84ZM10.5067 0.199999C12.5334 0.199999 14.1734 0.666665 15.4267 1.6C16.6801 2.53333 17.6534 3.72 18.3467 5.16C19.0401 6.6 19.5067 8.18666 19.7467 9.92C19.9867 11.6267 20.1067 13.2667 20.1067 14.84C20.1067 16.4133 19.9867 18.0667 19.7467 19.8C19.5067 21.5067 19.0401 23.08 18.3467 24.52C17.6534 25.96 16.6801 27.1467 15.4267 28.08C14.1734 29.0133 12.5334 29.48 10.5067 29.48C8.48005 29.48 6.84005 29.0133 5.58672 28.08C4.33339 27.1467 3.36005 25.96 2.66672 24.52C1.97339 23.08 1.50672 21.5067 1.26672 19.8C1.02672 18.0667 0.906719 16.4133 0.906719 14.84C0.906719 13.2667 1.02672 11.6267 1.26672 9.92C1.50672 8.18666 1.97339 6.6 2.66672 5.16C3.36005 3.72 4.33339 2.53333 5.58672 1.6C6.84005 0.666665 8.48005 0.199999 10.5067 0.199999Z" fill="#0F0F0F"/>
</svg>
