<svg width="17" height="20" viewBox="0 0 17 20" fill="none" xmlns="http://www.w3.org/2000/svg">
<path d="M8.61679 0.000105914C7.50901 0.000105914 6.44667 0.439172 5.66322 1.2211C4.87999 2.00307 4.43991 3.0634 4.43991 4.16909V6.73473H1.37285L0 20H17L15.6271 6.73473H12.8229V4.16909C12.8229 3.0583 12.3789 1.99349 11.5892 1.21074C10.7997 0.428 9.72967 -0.00780743 8.61679 0.000105914ZM5.02406 4.16909C5.02406 2.88791 5.70886 1.70408 6.8205 1.06351C7.93213 0.422897 9.30154 0.422897 10.4132 1.06351C11.5249 1.70413 12.2097 2.88791 12.2097 4.16909V6.73473H5.02411L5.02406 4.16909ZM16.3574 19.4169H0.642611L1.86942 7.31777H15.1014L16.3574 19.4169Z" fill="white"/>
</svg>
