<svg width="12" height="12" viewBox="0 0 12 12" fill="none" xmlns="http://www.w3.org/2000/svg">
<path d="M2.52589 1.69377C3.72149 0.907423 5.17199 0.60711 6.58172 0.853824C7.99119 1.10053 9.25344 1.8759 10.1109 3.02139L10.2233 2.26145C10.257 2.04403 10.4438 1.88334 10.6639 1.88293H10.7291C10.8453 1.89963 10.9501 1.96234 11.0202 2.05661C11.0901 2.15109 11.1194 2.26949 11.1017 2.38563L10.7409 4.8224L8.43428 4.25452C8.19583 4.19573 8.0502 3.9548 8.10898 3.71636C8.16777 3.47791 8.4087 3.33227 8.64714 3.39106L9.42789 3.58331C8.65004 2.52427 7.4668 1.83635 6.16152 1.68453C4.85639 1.53251 3.54673 1.9302 2.5463 2.78233C1.54609 3.63427 0.945196 4.86409 0.887425 6.17681C0.876905 6.42187 0.669597 6.61185 0.424747 6.60113C0.179691 6.59061 -0.0102924 6.3833 0.000432649 6.13845C0.0841791 4.33847 1.02253 2.68702 2.52589 1.69377Z" fill="#146060"/>
<path d="M0.541977 8.17945L2.95811 8.70587C3.07548 8.72856 3.17862 8.79746 3.24442 8.89729C3.31022 8.99713 3.33291 9.11925 3.30754 9.23621C3.28196 9.35296 3.21038 9.45445 3.1089 9.51778C3.00761 9.5811 2.88488 9.6007 2.76874 9.57244L1.98799 9.40103V9.40082C2.78173 10.3592 3.92099 10.9661 5.15889 11.0904C6.39695 11.215 7.63422 10.8466 8.60269 10.0654C9.57096 9.28427 10.1929 8.15304 10.3333 6.91683C10.3587 6.69282 10.5483 6.52347 10.7739 6.52347H10.8243H10.8241C11.0675 6.55131 11.2422 6.771 11.2146 7.0144C11.0466 8.49442 10.2981 9.84723 9.13322 10.7755C7.96819 11.7037 6.48258 12.1313 5.00229 11.9647C3.52227 11.7978 2.16888 11.0501 1.2398 9.88583L1.14821 10.64C1.11871 10.885 0.896349 11.0597 0.651499 11.0302C0.406443 11.001 0.231726 10.7784 0.261018 10.5335L0.541977 8.17945Z" fill="#146060"/>
</svg>
