<svg width="20" height="20" viewBox="0 0 20 20" fill="none" xmlns="http://www.w3.org/2000/svg">
<path d="M10.0052 17.4818L9.15104 16.7109C7.67882 15.3637 6.46354 14.2005 5.50521 13.2214C4.54687 12.2422 3.78299 11.3672 3.21354 10.5964C2.6441 9.82552 2.24479 9.1276 2.01562 8.5026C1.78646 7.8776 1.67188 7.24566 1.67188 6.60677C1.67188 5.35677 2.09201 4.31163 2.93229 3.47135C3.77257 2.63108 4.81076 2.21094 6.04688 2.21094C6.83854 2.21094 7.57118 2.39844 8.24479 2.77344C8.9184 3.14844 9.50521 3.6901 10.0052 4.39844C10.5885 3.64844 11.2066 3.09635 11.8594 2.74219C12.5122 2.38802 13.2135 2.21094 13.9635 2.21094C15.1997 2.21094 16.2378 2.63108 17.0781 3.47135C17.9184 4.31163 18.3385 5.35677 18.3385 6.60677C18.3385 7.24566 18.224 7.8776 17.9948 8.5026C17.7656 9.1276 17.3663 9.82552 16.7969 10.5964C16.2274 11.3672 15.4635 12.2422 14.5052 13.2214C13.5469 14.2005 12.3316 15.3637 10.8594 16.7109L10.0052 17.4818ZM10.0052 15.8359C11.408 14.5443 12.5642 13.4366 13.474 12.513C14.3837 11.5894 15.1059 10.7804 15.6406 10.0859C16.1753 9.39149 16.5503 8.77344 16.7656 8.23177C16.9809 7.6901 17.0885 7.14844 17.0885 6.60677C17.0885 5.6901 16.7969 4.93663 16.2135 4.34635C15.6302 3.75608 14.8802 3.46094 13.9635 3.46094C13.2552 3.46094 12.5955 3.67969 11.9844 4.11719C11.3733 4.55469 10.8802 5.16927 10.5052 5.96094H9.48438C9.12326 5.18316 8.63715 4.57205 8.02604 4.1276C7.41493 3.68316 6.75521 3.46094 6.04688 3.46094C5.13021 3.46094 4.38021 3.75608 3.79688 4.34635C3.21354 4.93663 2.92188 5.6901 2.92188 6.60677C2.92188 7.14844 3.02951 7.69358 3.24479 8.24219C3.46007 8.7908 3.83507 9.4158 4.36979 10.1172C4.90451 10.8186 5.63021 11.6276 6.54688 12.5443C7.46354 13.4609 8.61632 14.5582 10.0052 15.8359Z" fill="#146060"/>
</svg>
