<svg width="22" height="22" viewBox="0 0 22 22" fill="none" xmlns="http://www.w3.org/2000/svg">
<path d="M18.2417 19.2266L12.2146 13.1995C11.7563 13.5967 11.2215 13.9061 10.6104 14.1276C9.99931 14.3491 9.35 14.4599 8.6625 14.4599C7.0125 14.4599 5.61458 13.887 4.46875 12.7411C3.32292 11.5953 2.75 10.2127 2.75 8.59323C2.75 6.97378 3.32292 5.59115 4.46875 4.44531C5.61458 3.29948 7.00486 2.72656 8.63958 2.72656C10.259 2.72656 11.6378 3.29948 12.776 4.44531C13.9142 5.59115 14.4833 6.97378 14.4833 8.59323C14.4833 9.25017 14.3764 9.8842 14.1625 10.4953C13.9486 11.1064 13.6278 11.6793 13.2 12.2141L19.25 18.2182L18.2417 19.2266ZM8.63958 13.0849C9.87708 13.0849 10.9313 12.6457 11.8021 11.7672C12.6729 10.8887 13.1083 9.83073 13.1083 8.59323C13.1083 7.35573 12.6729 6.29774 11.8021 5.41927C10.9313 4.5408 9.87708 4.10156 8.63958 4.10156C7.38681 4.10156 6.32118 4.5408 5.44271 5.41927C4.56424 6.29774 4.125 7.35573 4.125 8.59323C4.125 9.83073 4.56424 10.8887 5.44271 11.7672C6.32118 12.6457 7.38681 13.0849 8.63958 13.0849Z" fill="#146060"/>
</svg>
