<svg width="16" height="21" viewBox="0 0 16 21" fill="none" xmlns="http://www.w3.org/2000/svg">
<path fill-rule="evenodd" clip-rule="evenodd" d="M3.36 12.9728C4.59704 12.9728 5.6 11.9726 5.6 10.7389C5.6 9.50529 4.59704 8.5051 3.36 8.5051C2.1228 8.5051 1.12 9.50529 1.12 10.7389C1.12 11.9726 2.1228 12.9728 3.36 12.9728ZM3.36 14.0897C5.21564 14.0897 6.72 12.5894 6.72 10.7389C6.72 8.8884 5.21564 7.38818 3.36 7.38818C1.50436 7.38818 0 8.8884 0 10.7389C0 12.5894 1.50436 14.0897 3.36 14.0897Z" fill="#146060"/>
<path fill-rule="evenodd" clip-rule="evenodd" d="M10.5815 5.90521L5.88593 9.50746L5.20312 8.6221L9.89872 5.02002L10.5815 5.90521ZM5.88593 11.9724L10.4223 15.4522L9.73952 16.3375L5.20312 12.8578L5.88593 11.9724Z" fill="#146060"/>
<path fill-rule="evenodd" clip-rule="evenodd" d="M12.3209 6.27255C13.558 6.27255 14.5609 5.27236 14.5609 4.03873C14.5609 2.80494 13.558 1.8049 12.3209 1.8049C11.0839 1.8049 10.0809 2.80494 10.0809 4.03873C10.0809 5.27236 11.0839 6.27255 12.3209 6.27255ZM12.3209 7.38947C14.1766 7.38947 15.6809 5.88925 15.6809 4.03873C15.6809 2.1882 14.1766 0.687988 12.3209 0.687988C10.4653 0.687988 8.96094 2.1882 8.96094 4.03873C8.96094 5.88925 10.4653 7.38947 12.3209 7.38947Z" fill="#146060"/>
<path fill-rule="evenodd" clip-rule="evenodd" d="M12.3209 19.6769C13.558 19.6769 14.5609 18.6767 14.5609 17.443C14.5609 16.2092 13.558 15.2092 12.3209 15.2092C11.0839 15.2092 10.0809 16.2092 10.0809 17.443C10.0809 18.6767 11.0839 19.6769 12.3209 19.6769ZM12.3209 20.7938C14.1766 20.7938 15.6809 19.2936 15.6809 17.443C15.6809 15.5923 14.1766 14.0923 12.3209 14.0923C10.4653 14.0923 8.96094 15.5923 8.96094 17.443C8.96094 19.2936 10.4653 20.7938 12.3209 20.7938Z" fill="#146060"/>
</svg>
