<svg width="18" height="16" viewBox="0 0 18 16" fill="none" xmlns="http://www.w3.org/2000/svg">
<path d="M9.0013 15.7343L8.14714 14.9523C6.67491 13.5856 5.45964 12.4055 4.5013 11.4122C3.54297 10.4188 2.77908 9.53114 2.20964 8.74913C1.64019 7.96713 1.24089 7.2591 1.01172 6.62504C0.782552 5.99098 0.667969 5.34988 0.667969 4.70173C0.667969 3.43361 1.08811 2.37333 1.92839 1.52087C2.76866 0.668415 3.80686 0.242188 5.04297 0.242188C5.83464 0.242188 6.56727 0.432405 7.24089 0.81284C7.9145 1.19327 8.5013 1.74279 9.0013 2.46139C9.58463 1.70052 10.2027 1.14044 10.8555 0.781137C11.5082 0.421837 12.2096 0.242188 12.9596 0.242188C14.1957 0.242188 15.2339 0.668415 16.0742 1.52087C16.9145 2.37333 17.3346 3.43361 17.3346 4.70173C17.3346 5.34988 17.2201 5.99098 16.9909 6.62504C16.7617 7.2591 16.3624 7.96713 15.793 8.74913C15.2235 9.53114 14.4596 10.4188 13.5013 11.4122C12.543 12.4055 11.3277 13.5856 9.85547 14.9523L9.0013 15.7343ZM9.0013 14.0647C10.4041 12.7543 11.5603 11.6306 12.4701 10.6936C13.3798 9.75658 14.102 8.93583 14.6367 8.23132C15.1714 7.52681 15.5464 6.8998 15.7617 6.35028C15.977 5.80076 16.0846 5.25125 16.0846 4.70173C16.0846 3.77178 15.793 3.00738 15.2096 2.40855C14.6263 1.80972 13.8763 1.5103 12.9596 1.5103C12.2513 1.5103 11.5916 1.73222 10.9805 2.17606C10.3694 2.6199 9.8763 3.2434 9.5013 4.04654H8.48047C8.11936 3.25749 7.63325 2.63752 7.02214 2.18663C6.41102 1.73575 5.7513 1.5103 5.04297 1.5103C4.1263 1.5103 3.3763 1.80972 2.79297 2.40855C2.20964 3.00738 1.91797 3.77178 1.91797 4.70173C1.91797 5.25125 2.02561 5.80428 2.24089 6.36085C2.45616 6.91741 2.83116 7.55147 3.36589 8.26302C3.90061 8.97457 4.6263 9.79533 5.54297 10.7253C6.45964 11.6552 7.61241 12.7684 9.0013 14.0647Z" fill="white"/>
</svg>
